# File created by Blade
# Date/Time:  Tue Sep 28 14:35:47 2010
#---------------------------------------------------------
:version 1.10
:name HOM
:units
  mass 1.0
  length 1.000000
  angle deg
:documentation
     Acclaim Skeleton File
:root
   axis xyz
   order TX TY TZ RX RY RZ
   position 0.000000 0.000000 0.000000
   orientation 0 0 0
:bonedata
   begin
      id 1
      name LeftUpLeg_dum
      direction 1.000000 0.000000 0.000000
      length 3.677894
      axis 0.0 0.0 0.0 xyz
   end
   begin
      id 2
      name RightUpLeg_dum
      direction -1.000000 0.000000 0.000000
      length 3.677894
      axis 0.0 0.0 0.0 xyz
   end
   begin
      id 3
      name Spine_dum
      direction 0.000000 1.000000 0.000000
      length 0.039370
      axis 0.0 0.0 0.0 xyz
   end
   begin
      id 4
      name LeftUpLeg
      direction 0.000000 -1.000000 0.000000
      length 18.389491
      axis 0.0 0.0 0.0 xyz
      dof rx ry rz
   end
   begin
      id 5
      name LeftLeg
      direction 0.000000 -1.000000 0.000000
      length 16.918313
      axis 0.0 0.0 0.0 xyz
      dof rx ry rz
   end
   begin
      id 6
      name LeftFoot
      direction 0.000000 -0.258819 0.965926
      length 6.436326
      axis 15.0 0.0 0.0 xyz
      dof rx ry rz
   end
   begin
      id 7
      name LeftToeBase
      direction 0.000000 0.000000 1.000000
      length 2.952750
      axis 0.0 0.0 0.0 xyz
      dof rx ry rz
   end
   begin
      id 8
      name RightUpLeg
      direction 0.000000 -1.000000 0.000000
      length 18.389491
      axis 0.0 0.0 0.0 xyz
      dof rx ry rz
   end
   begin
      id 9
      name RightLeg
      direction 0.000000 -1.000000 0.000000
      length 16.918313
      axis 0.0 0.0 0.0 xyz
      dof rx ry rz
   end
   begin
      id 10
      name RightFoot
      direction 0.000000 -0.258819 0.965926
      length 6.436326
      axis 15.0 0.0 0.0 xyz
      dof rx ry rz
   end
   begin
      id 11
      name RightToeBase
      direction 0.000000 0.000000 1.000000
      length 2.952750
      axis 0.0 0.0 0.0 xyz
      dof rx ry rz
   end
   begin
      id 12
      name Spine
      direction 0.000000 1.000000 0.000000
      length 9.194745
      axis 0.0 0.0 0.0 xyz
      dof rx ry rz
   end
   begin
      id 13
      name Spine1
      direction 0.000000 1.000000 0.000000
      length 0.000000
      axis 0.0 0.0 0.0 xyz
      dof rx ry rz
   end
   begin
      id 14
      name Spine1_dum1
      direction 0.000000 1.000000 0.000000
      length 9.194745
      axis 0.0 0.0 0.0 xyz
   end
   begin
      id 15
      name Spine1_dum2
      direction 0.000000 1.000000 0.000000
      length 9.194745
      axis 0.0 0.0 0.0 xyz
   end
   begin
      id 16
      name Spine1_dum3
      direction 0.000000 1.000000 0.000000
      length 9.194745
      axis 0.0 0.0 0.0 xyz
   end
   begin
      id 17
      name Neck
      direction 0.000000 1.000000 0.000000
      length 4.229598
      axis 0.0 0.0 0.0 xyz
      dof rx ry rz
   end
   begin
      id 18
      name Head
      direction 0.000000 1.000000 0.000000
      length 4.527550
      axis 0.0 0.0 0.0 xyz
      dof rx ry rz
   end
   begin
      id 19
      name LeftShoulder
      direction 1.000000 -0.000004 0.000000
      length 5.516839
      axis 0.0 0.0 -90.0 xyz
      dof rx ry rz
   end
   begin
      id 20
      name LeftArm
      direction 1.000000 -0.000004 0.000000
      length 11.033679
      axis 0.0 0.0 -90.0 xyz
      dof rx ry rz
   end
   begin
      id 21
      name LeftForeArm
      direction 1.000000 -0.000004 0.000000
      length 10.114232
      axis 0.0 0.0 -90.0 xyz
      dof rx ry rz
   end
   begin
      id 22
      name LeftHand
      direction 0.000000 0.000000 0.000000
      length 0.000000
      axis 0.0 0.0 -90.0 xyz
      dof rx ry rz
   end
   begin
      id 23
      name LeftHand_dum1
      direction 0.000000 0.000000 0.000000
      length 0.000000
      axis 0.0 0.0 -90.0 xyz
   end
   begin
      id 24
      name LeftHand_dum2
      direction 1.000000 -0.000004 0.000000
      length 3.937000
      axis 0.0 0.0 -90.0 xyz
   end
   begin
      id 25
      name LeftHandThumb
      direction 0.000000 0.000000 1.000000
      length 3.937000
      axis 0.0 0.0 -90.0 xyz
      dof rx ry rz
   end
   begin
      id 26
      name RightShoulder
      direction -1.000000 -0.000004 0.000000
      length 5.516839
      axis 0.0 0.0 90.0 xyz
      dof rx ry rz
   end
   begin
      id 27
      name RightArm
      direction -1.000000 -0.000004 0.000000
      length 11.033679
      axis 0.0 0.0 90.0 xyz
      dof rx ry rz
   end
   begin
      id 28
      name RightForeArm
      direction -1.000000 -0.000004 0.000000
      length 10.114232
      axis 0.0 0.0 90.0 xyz
      dof rx ry rz
   end
   begin
      id 29
      name RightHand
      direction 0.000000 0.000000 0.000000
      length 0.000000
      axis 0.0 0.0 90.0 xyz
      dof rx ry rz
   end
   begin
      id 30
      name RightHand_dum1
      direction 0.000000 0.000000 0.000000
      length 0.000000
      axis 0.0 0.0 90.0 xyz
   end
   begin
      id 31
      name RightHand_dum2
      direction -1.000000 -0.000004 0.000000
      length 5.393690
      axis 0.0 0.0 90.0 xyz
   end
   begin
      id 32
      name RightHandThumb
      direction 0.000000 0.000000 1.000000
      length 3.937000
      axis 0.0 0.0 90.0 xyz
      dof rx ry rz
   end
:hierarchy
   begin
      root LeftUpLeg_dum RightUpLeg_dum Spine_dum
      LeftUpLeg_dum LeftUpLeg
      RightUpLeg_dum RightUpLeg
      Spine_dum Spine
      LeftUpLeg LeftLeg
      LeftLeg LeftFoot
      LeftFoot LeftToeBase
      RightUpLeg RightLeg
      RightLeg RightFoot
      RightFoot RightToeBase
      Spine Spine1
      Spine1 Spine1_dum1 Spine1_dum2 Spine1_dum3
      Spine1_dum1 Neck
      Spine1_dum2 LeftShoulder
      Spine1_dum3 RightShoulder
      Neck Head
      LeftShoulder LeftArm
      LeftArm LeftForeArm
      LeftForeArm LeftHand
      LeftHand LeftHand_dum1 LeftHand_dum2
      LeftHand_dum1 LeftHandThumb
      RightShoulder RightArm
      RightArm RightForeArm
      RightForeArm RightHand
      RightHand RightHand_dum1 RightHand_dum2
      RightHand_dum1 RightHandThumb
   end

# File created by Blade
# Date/Time:  Tue Sep 28 14:35:42 2010
# Frame Rate: 200.000 fps
#------------------------------------------------------
:FULLY-SPECIFIED
:DEGREES
1043
root  1.367713 37.699366 85.754387 5.614664 -0.027643 -7.414383
LeftUpLeg  -32.546541 32.281495 -4.763915
LeftLeg  18.046201 -0.000000 0.000000
LeftFoot  -3.241666 -8.641908 20.287115
LeftToeBase  -10.026204 0.000000 -0.000000
RightUpLeg  -4.778892 -40.572194 7.297869
RightLeg  21.277780 -0.000000 0.000000
RightFoot  -8.754043 17.319653 -25.561097
RightToeBase  -12.548839 0.000000 -0.000000
Spine  -17.385606 1.070584 4.517572
Spine1  23.745850 -0.539001 7.248290
Neck  15.738378 3.869857 -9.831543
Head  -7.327877 0.424819 3.494871
LeftShoulder  -9.422476 20.778933 -46.333763
LeftArm  13.455248 -0.014720 -14.433684
LeftForeArm  17.791858 -0.000000 0.000000
LeftHand  2.997987 -2.823750 -6.210479
LeftHandThumb  0.000000 -0.000000 0.000000
RightShoulder  4.493163 11.421824 19.725988
RightArm  3.797213 -34.839655 30.563632
RightForeArm  24.757062 -0.000000 0.000000
RightHand  5.510322 5.541017 0.955342
RightHandThumb  0.000000 -0.000000 0.000000
1044
root  1.398602 37.662786 85.891567 5.681038 -0.037506 -7.388145
LeftUpLeg  -31.934210 30.939558 -4.139216
LeftLeg  17.662346 -0.000000 0.000000
LeftFoot  -2.410389 -7.731305 19.158179
LeftToeBase  -10.969388 0.000000 -0.000000
RightUpLeg  -4.723060 -40.328873 7.132940
RightLeg  21.538541 -0.000000 0.000000
RightFoot  -8.972872 16.943126 -25.614937
RightToeBase  -12.789755 0.000000 -0.000000
Spine  -17.411018 1.043126 4.401157
Spine1  23.534965 -0.500019 7.184612
Neck  15.954089 3.327660 -9.495186
Head  -7.519387 1.092477 3.016098
LeftShoulder  -9.593772 21.318426 -46.305987
LeftArm  13.432448 -0.954898 -14.175742
LeftForeArm  17.633205 -0.000000 0.000000
LeftHand  2.942123 -2.899371 -6.121155
LeftHandThumb  0.000000 -0.000000 0.000000
RightShoulder  4.447068 11.356921 19.614119
RightArm  3.719838 -34.946197 30.514346
RightForeArm  24.384529 -0.000000 0.000000
RightHand  5.370873 5.667876 0.850747
RightHandThumb  0.000000 -0.000000 0.000000
1045
root  1.456641 37.635543 86.031727 5.758443 0.029369 -7.070118
LeftUpLeg  -30.413194 27.253533 -2.680729
LeftLeg  16.529148 -0.000000 0.000000
LeftFoot  -0.642965 -5.266745 16.742138
LeftToeBase  -11.369794 0.000000 -0.000000
RightUpLeg  -4.667366 -40.716122 6.583609
RightLeg  21.849187 -0.000000 0.000000
RightFoot  -9.374489 17.049681 -25.811149
RightToeBase  -13.319194 0.000000 -0.000000
Spine  -17.480150 0.999333 4.163172
Spine1  23.341772 -0.431508 7.023885
Neck  16.074277 2.968577 -9.400900
Head  -7.608795 1.134039 2.965685
LeftShoulder  -9.657776 22.230819 -46.433592
LeftArm  13.385131 -2.174929 -13.789669
LeftForeArm  17.477374 -0.000000 0.000000
LeftHand  2.998507 -2.615422 -6.009467
LeftHandThumb  0.000000 -0.000000 0.000000
RightShoulder  4.365593 11.295842 19.570570
RightArm  3.559794 -34.799166 30.390574
RightForeArm  24.031826 -0.000000 0.000000
RightHand  5.251606 5.528790 0.873264
RightHandThumb  0.000000 -0.000000 0.000000
1046
root  1.490610 37.602899 86.172203 5.788120 0.001604 -7.019352
LeftUpLeg  -30.053480 26.209389 -2.253390
LeftLeg  16.591564 -0.000000 0.000000
LeftFoot  -0.211047 -4.504448 16.821445
LeftToeBase  -11.081999 0.000000 -0.000000
RightUpLeg  -4.582888 -40.234821 6.384610
RightLeg  22.131285 -0.000000 0.000000
RightFoot  -9.464661 16.494252 -25.638532
RightToeBase  -13.437488 0.000000 -0.000000
Spine  -17.497543 0.950803 4.055900
Spine1  23.231184 -0.423981 6.958900
Neck  15.887315 3.236849 -9.362867
Head  -7.347300 1.194313 2.897830
LeftShoulder  -9.813694 22.710481 -46.372613
LeftArm  13.344133 -3.085951 -13.598532
LeftForeArm  17.316630 -0.000000 0.000000
LeftHand  3.017628 -2.619603 -5.821723
LeftHandThumb  0.000000 -0.000000 0.000000
RightShoulder  4.307634 11.222774 19.485076
RightArm  3.545357 -34.675083 30.238357
RightForeArm  23.729804 -0.000000 0.000000
RightHand  5.189171 5.678550 0.906261
RightHandThumb  0.000000 -0.000000 0.000000
1047
root  1.552922 37.588270 86.324570 5.647966 -0.044958 -6.056799
LeftUpLeg  -28.512747 22.949666 -1.621954
LeftLeg  15.564605 -0.000000 0.000000
LeftFoot  1.405784 -2.628226 15.437181
LeftToeBase  -11.313924 0.000000 -0.000000
RightUpLeg  -4.320584 -40.834376 4.937087
RightLeg  22.692851 -0.000000 0.000000
RightFoot  -10.035462 16.835693 -25.826379
RightToeBase  -14.516610 0.000000 -0.000000
Spine  -17.576678 0.907476 3.314779
Spine1  23.471841 -0.180754 6.544839
Neck  14.317300 4.267446 -9.059528
Head  -4.743419 0.225000 3.322418
LeftShoulder  -9.684242 23.761107 -46.384465
LeftArm  13.208186 -4.631999 -13.167934
LeftForeArm  17.264692 -0.000000 0.000000
LeftHand  3.115207 -1.533666 -5.683392
LeftHandThumb  0.000000 -0.000000 0.000000
RightShoulder  4.285893 10.803657 19.665566
RightArm  3.593258 -33.829913 29.877085
RightForeArm  23.297603 -0.000000 0.000000
RightHand  5.674062 5.874663 0.752386
RightHandThumb  0.000000 -0.000000 0.000000
